<svg xmlns="http://www.w3.org/2000/svg" xmlns:xlink="http://www.w3.org/1999/xlink" width="1440" zoomAndPan="magnify" viewBox="0 0 1080 67.499998" height="90" preserveAspectRatio="xMidYMid meet" version="1.0"><defs><clipPath id="88e0556481"><path d="M 3.96875 0 L 1076.027344 0 L 1076.027344 66 L 3.96875 66 Z M 3.96875 0 " clip-rule="nonzero"/></clipPath><clipPath id="abba10f5ff"><path d="M 1076.03125 -0.00390625 L 1040.292969 6.175781 C 1004.558594 12.652344 933.089844 24.5625 861.617188 28.507812 C 790.148438 32.007812 718.675781 27.542969 647.207031 23.59375 C 575.734375 20.097656 504.265625 17.117188 432.792969 17.34375 C 361.324219 17.117188 289.851562 20.097656 218.382812 26.050781 C 146.910156 32.007812 75.441406 42.429688 3.96875 45.929688 C -67.5 49.875 -138.96875 46.898438 -210.441406 40.941406 C -281.910156 34.984375 -353.382812 24.5625 -424.851562 24.785156 C -496.324219 24.5625 -567.792969 34.984375 -639.265625 32.230469 C -710.734375 29.773438 -782.207031 14.886719 -853.675781 18.609375 C -925.148438 22.328125 -996.617188 44.664062 -1068.089844 55.832031 C -1139.558594 67 -1211.03125 67 -1282.5 64.542969 C -1353.96875 61.789062 -1425.441406 57.320312 -1496.910156 45.929688 C -1568.382812 34.984375 -1639.851562 17.117188 -1711.324219 11.164062 C -1782.792969 5.207031 -1854.265625 9.671875 -1925.734375 16.152344 C -1997.207031 22.328125 -2068.675781 29.773438 -2140.148438 31.039062 C -2211.617188 32.007812 -2283.089844 27.542969 -2354.558594 21.0625 C -2426.027344 14.886719 -2497.5 7.441406 -2568.96875 3.71875 C -2640.441406 -0.00390625 -2711.910156 -0.00390625 -2783.382812 1.261719 C -2854.851562 2.230469 -2926.324219 5.207031 -2997.792969 4.984375 C -3069.265625 5.207031 -3140.734375 2.230469 -3212.207031 2.453125 C -3283.675781 2.230469 -3355.148438 5.207031 -3426.617188 13.621094 C -3498.089844 22.328125 -3569.558594 37.21875 -3641.027344 42.207031 C -3712.5 46.898438 -3783.96875 42.429688 -3855.441406 38.484375 C -3926.910156 34.984375 -3998.382812 32.007812 -4034.117188 31.039062 L -4069.851562 29.773438 L -4069.851562 -7.449219 L -4034.117188 -7.449219 C -3998.382812 -7.449219 -3926.910156 -7.449219 -3855.441406 -7.449219 C -3783.96875 -7.449219 -3712.5 -7.449219 -3641.027344 -7.449219 C -3569.558594 -7.449219 -3498.089844 -7.449219 -3426.617188 -7.449219 C -3355.148438 -7.449219 -3283.675781 -7.449219 -3212.207031 -7.449219 C -3140.734375 -7.449219 -3069.265625 -7.449219 -2997.792969 -7.449219 C -2926.324219 -7.449219 -2854.851562 -7.449219 -2783.382812 -7.449219 C -2711.910156 -7.449219 -2640.441406 -7.449219 -2568.96875 -7.449219 C -2497.5 -7.449219 -2426.027344 -7.449219 -2354.558594 -7.449219 C -2283.089844 -7.449219 -2211.617188 -7.449219 -2140.148438 -7.449219 C -2068.675781 -7.449219 -1997.207031 -7.449219 -1925.734375 -7.449219 C -1854.265625 -7.449219 -1782.792969 -7.449219 -1711.324219 -7.449219 C -1639.851562 -7.449219 -1568.382812 -7.449219 -1496.910156 -7.449219 C -1425.441406 -7.449219 -1353.96875 -7.449219 -1282.5 -7.449219 C -1211.03125 -7.449219 -1139.558594 -7.449219 -1068.089844 -7.449219 C -996.617188 -7.449219 -925.148438 -7.449219 -853.675781 -7.449219 C -782.207031 -7.449219 -710.734375 -7.449219 -639.265625 -7.449219 C -567.792969 -7.449219 -496.324219 -7.449219 -424.851562 -7.449219 C -353.382812 -7.449219 -281.910156 -7.449219 -210.441406 -7.449219 C -138.96875 -7.449219 -67.5 -7.449219 3.96875 -7.449219 C 75.441406 -7.449219 146.910156 -7.449219 218.382812 -7.449219 C 289.851562 -7.449219 361.324219 -7.449219 432.792969 -7.449219 C 504.265625 -7.449219 575.734375 -7.449219 647.207031 -7.449219 C 718.675781 -7.449219 790.148438 -7.449219 861.617188 -7.449219 C 933.089844 -7.449219 1004.558594 -7.449219 1040.292969 -7.449219 L 1076.03125 -7.449219 Z M 1076.03125 -0.00390625 " clip-rule="nonzero"/></clipPath></defs><g clip-path="url(#88e0556481)"><g clip-path="url(#abba10f5ff)"><path fill="#51aed6" d="M 1076.03125 67 L 1076.03125 0 L 3.96875 0 L 3.96875 67 Z M 1076.03125 67 " fill-opacity="1" fill-rule="nonzero"/></g></g></svg>